<svg width="40" height="40" viewBox="0 0 40 40" fill="none" xmlns="http://www.w3.org/2000/svg">
<g id="&#230;&#176;&#148;&#232;&#177;&#161;&#231;&#171;&#153;" clip-path="url(#clip0_497_5546)">
<g id="Vector">
<g filter="url(#filter0_i_497_5546)">
<path d="M34.9696 13.7225C34.9696 20.2978 24.106 35.6403 21.2472 39.6426C20.866 40.1191 20.1989 40.1191 19.8177 39.6426C16.8636 35.6403 6 20.2978 6 13.7225C6 6.19416 12.48 0 20.4848 0C28.4896 0 34.9696 6.19416 34.9696 13.7225Z" fill="#0D140F"/>
</g>
<path d="M34.2196 13.7225C34.2196 15.2015 33.5969 17.2725 32.5406 19.6825C31.4949 22.0683 30.0648 24.698 28.5362 27.2635C25.4907 32.3746 22.089 37.1735 20.6522 39.1852C20.6035 39.2407 20.5586 39.25 20.5325 39.25C20.5058 39.25 20.4598 39.2404 20.41 39.1821C18.934 37.1816 15.5048 32.3783 12.4447 27.2624C10.9104 24.6973 9.47743 22.0678 8.43036 19.6822C7.37266 17.2724 6.75 15.2014 6.75 13.7225C6.75 6.64416 12.8575 0.75 20.4848 0.75C28.1121 0.75 34.2196 6.64416 34.2196 13.7225Z" stroke="#31DC4D" stroke-width="1.5"/>
</g>
<g id="Vector_2" filter="url(#filter1_d_497_5546)">
<path d="M16.5151 23.9993C16.4377 23.9996 16.3611 23.9852 16.2896 23.9569C16.218 23.9286 16.153 23.887 16.0982 23.8344C16.0433 23.7818 15.9998 23.7193 15.9701 23.6505C15.9403 23.5816 15.9249 23.5078 15.9248 23.4332C15.9249 23.3587 15.9403 23.2849 15.9701 23.216C15.9998 23.1472 16.0433 23.0847 16.0982 23.0321C16.153 22.9795 16.218 22.9379 16.2896 22.9096C16.3611 22.8813 16.4377 22.8669 16.5151 22.8672H17.8141V21.3182C17.1982 21.0536 16.6384 20.6816 16.1627 20.2209C13.6228 17.787 14.4182 13.8778 15.7413 12.6116C16.782 11.6149 18.678 12.1615 20.4174 13.3793C20.4527 13.4036 20.4802 13.437 20.4969 13.4756C20.5137 13.5142 20.519 13.5565 20.5122 13.5978L20.3579 14.5412L20.2383 14.5931C20.197 14.6107 20.1515 14.6168 20.1068 14.6108C20.0621 14.6048 20.02 14.587 19.9852 14.5593C18.5944 13.4303 17.2095 12.9417 16.6349 13.4558C15.9325 14.0831 16.7052 15.9712 18.3617 17.6723C20.0182 19.3734 21.9287 20.2439 22.6312 19.6162C23.1734 19.1325 22.8367 17.8952 21.8918 16.5738L22.0046 16.3719L23.0702 16.0423C24.1839 17.7087 24.5815 19.5421 23.5867 20.4952C22.7161 21.3288 20.8772 22.0026 18.9962 21.6693V22.8679H21.2409C21.3182 22.8675 21.3949 22.8819 21.4665 22.9102C21.5381 22.9385 21.6032 22.9801 21.6582 23.0327C21.7131 23.0853 21.7567 23.1478 21.7865 23.2166C21.8164 23.2855 21.8318 23.3593 21.832 23.4339C21.8318 23.5085 21.8164 23.5824 21.7865 23.6512C21.7567 23.7201 21.7131 23.7826 21.6582 23.8352C21.6032 23.8878 21.5381 23.9294 21.4665 23.9577C21.3949 23.9859 21.3182 24.0003 21.2409 24L16.5151 23.9993ZM19.5822 16.9827L19.4497 16.8558C19.3845 16.7965 19.3333 16.7241 19.2999 16.6439C19.2664 16.5636 19.2513 16.4773 19.2558 16.3909C19.2602 16.3045 19.2841 16.22 19.3256 16.1434C19.3672 16.0667 19.4255 15.9996 19.4965 15.9468L20.895 14.8505C21.0044 14.7685 21.134 14.7151 21.2711 14.6956C21.4082 14.676 21.5482 14.691 21.6775 14.739C21.584 14.6213 21.5337 14.477 21.5345 14.3287C21.5314 14.1564 21.5992 13.9899 21.7231 13.8656C21.8471 13.7414 22.017 13.6695 22.1957 13.6658C22.3745 13.6692 22.5447 13.741 22.6688 13.8652C22.7929 13.9895 22.8608 14.1562 22.8576 14.3287C22.8593 14.4141 22.8435 14.499 22.8112 14.5786C22.7789 14.6581 22.7306 14.7307 22.6691 14.7922C22.6076 14.8537 22.5341 14.9029 22.4529 14.937C22.3716 14.971 22.2842 14.9893 22.1957 14.9908C22.049 14.9911 21.9068 14.9428 21.7927 14.8539C21.8422 14.9772 21.8574 15.1108 21.8369 15.2415C21.8164 15.3722 21.7608 15.4954 21.6756 15.5991L20.531 16.9382C20.4719 17.0098 20.3969 17.0678 20.3116 17.1078C20.2263 17.1479 20.1328 17.169 20.0379 17.1697C19.9528 17.1692 19.8687 17.1523 19.7905 17.1202C19.7122 17.0881 19.6413 17.0413 19.582 16.9825L19.5822 16.9827ZM25.5461 14.9867C25.5461 12.7649 23.7473 10.9565 21.5363 10.9565V10C24.2736 10 26.5 12.237 26.5 14.9865L25.5461 14.9867ZM23.8578 14.9867C23.8616 14.3718 23.6175 13.7796 23.1772 13.335C22.9665 13.119 22.7122 12.9469 22.4301 12.829C22.1479 12.7112 21.8438 12.6502 21.5363 12.6497V11.695C23.3443 11.695 24.8142 13.1717 24.8142 14.9867H23.8578Z" fill="url(#paint0_linear_497_5546)"/>
</g>
</g>
<defs>
<filter id="filter0_i_497_5546" x="6" y="0" width="28.9696" height="40" filterUnits="userSpaceOnUse" color-interpolation-filters="sRGB">
<feFlood flood-opacity="0" result="BackgroundImageFix"/>
<feBlend mode="normal" in="SourceGraphic" in2="BackgroundImageFix" result="shape"/>
<feColorMatrix in="SourceAlpha" type="matrix" values="0 0 0 0 0 0 0 0 0 0 0 0 0 0 0 0 0 0 127 0" result="hardAlpha"/>
<feOffset/>
<feGaussianBlur stdDeviation="5"/>
<feComposite in2="hardAlpha" operator="arithmetic" k2="-1" k3="1"/>
<feColorMatrix type="matrix" values="0 0 0 0 0.164706 0 0 0 0 0.701961 0 0 0 0 0.25098 0 0 0 1 0"/>
<feBlend mode="normal" in2="shape" result="effect1_innerShadow_497_5546"/>
</filter>
<filter id="filter1_d_497_5546" x="10.5" y="10" width="20" height="22" filterUnits="userSpaceOnUse" color-interpolation-filters="sRGB">
<feFlood flood-opacity="0" result="BackgroundImageFix"/>
<feColorMatrix in="SourceAlpha" type="matrix" values="0 0 0 0 0 0 0 0 0 0 0 0 0 0 0 0 0 0 127 0" result="hardAlpha"/>
<feOffset dy="4"/>
<feGaussianBlur stdDeviation="2"/>
<feComposite in2="hardAlpha" operator="out"/>
<feColorMatrix type="matrix" values="0 0 0 0 0 0 0 0 0 0 0 0 0 0 0 0 0 0 0.25 0"/>
<feBlend mode="normal" in2="BackgroundImageFix" result="effect1_dropShadow_497_5546"/>
<feBlend mode="normal" in="SourceGraphic" in2="effect1_dropShadow_497_5546" result="shape"/>
</filter>
<linearGradient id="paint0_linear_497_5546" x1="20.5" y1="17.6462" x2="20.5" y2="24" gradientUnits="userSpaceOnUse">
<stop stop-color="white"/>
<stop offset="1" stop-color="#A2E497"/>
</linearGradient>
<clipPath id="clip0_497_5546">
<rect width="40" height="40" fill="white"/>
</clipPath>
</defs>
</svg>
